<svg xmlns="http://www.w3.org/2000/svg" width="880" height="240" viewBox="0 0 880 240" role="img" aria-label="qtjg/llm-redteam-workbench 3D banner">
<defs>
<linearGradient id="bgc77f2ca0" x1="0" y1="0" x2="0" y2="1">
<stop offset="0" stop-color="#130c18"/>
<stop offset="1" stop-color="#271731"/>
</linearGradient>
<linearGradient id="lgc77f2ca0" x1="0" y1="0" x2="0" y2="1">
<stop offset="0" stop-color="#cc82f7"/>
<stop offset="1" stop-color="#f631cf"/>
</linearGradient>
<clipPath id="clip"><rect width="880" height="240"/></clipPath>
</defs>
<rect width="880" height="240" fill="url(#bgc77f2ca0)"/>
<ellipse cx="100" cy="232" rx="96" ry="15" fill="#a23cdd" opacity="0.18">
<animate attributeName="opacity" values="0.12;0.26;0.12" dur="5s" repeatCount="indefinite"/>
</ellipse>
<ellipse cx="792" cy="236" rx="100" ry="15" fill="#dd3cc7" opacity="0.18">
<animate attributeName="opacity" values="0.12;0.26;0.12" dur="5s" begin="1.2s" repeatCount="indefinite"/>
</ellipse>
<g><animateTransform attributeName="transform" type="translate" values="0 0; 0 -6; 0 0" dur="5.2s" begin="0.0s" repeatCount="indefinite" calcMode="spline" keySplines="0.45 0 0.55 1; 0.45 0 0.55 1" keyTimes="0;0.5;1"/><polygon points="86.0,126.0 122.0,108.0 86.0,90.0 50.0,108.0" fill="#a456d2" stroke="#dfb6f7" stroke-width="0.8"/><polygon points="50.0,178.0 86.0,196.0 86.0,126.0 50.0,108.0" fill="#782ba4"/><polygon points="86.0,196.0 122.0,178.0 122.0,108.0 86.0,126.0" fill="#551f75"/></g><g><animateTransform attributeName="transform" type="translate" values="0 0; 0 -5; 0 0" dur="6.1s" begin="0.7s" repeatCount="indefinite" calcMode="spline" keySplines="0.45 0 0.55 1; 0.45 0 0.55 1" keyTimes="0;0.5;1"/><polygon points="64.0,184.0 90.0,171.0 64.0,158.0 38.0,171.0" fill="#ca56d2" stroke="#f2b6f7" stroke-width="0.8"/><polygon points="38.0,213.0 64.0,226.0 64.0,184.0 38.0,171.0" fill="#9c2ba4"/><polygon points="64.0,226.0 90.0,213.0 90.0,171.0 64.0,184.0" fill="#6f1f75"/></g><g><animateTransform attributeName="transform" type="translate" values="0 0; 0 -7; 0 0" dur="5.7s" begin="1.4s" repeatCount="indefinite" calcMode="spline" keySplines="0.45 0 0.55 1; 0.45 0 0.55 1" keyTimes="0;0.5;1"/><polygon points="112.0,124.0 134.0,113.0 112.0,102.0 90.0,113.0" fill="#8066d6" stroke="#d3c8f9" stroke-width="0.8"/><polygon points="90.0,141.0 112.0,152.0 112.0,124.0 90.0,113.0" fill="#4c2eaf"/><polygon points="112.0,152.0 134.0,141.0 134.0,113.0 112.0,124.0" fill="#37217d"/></g><g><animateTransform attributeName="transform" type="translate" values="0 0; 0 -6; 0 0" dur="5.5s" begin="0.4s" repeatCount="indefinite" calcMode="spline" keySplines="0.45 0 0.55 1; 0.45 0 0.55 1" keyTimes="0;0.5;1"/><polygon points="794.0,124.0 832.0,105.0 794.0,86.0 756.0,105.0" fill="#d256c1" stroke="#f7b6ee" stroke-width="0.8"/><polygon points="756.0,181.0 794.0,200.0 794.0,124.0 756.0,105.0" fill="#a42b94"/><polygon points="794.0,200.0 832.0,181.0 832.0,105.0 794.0,124.0" fill="#751f69"/></g><g><animateTransform attributeName="transform" type="translate" values="0 0; 0 -5; 0 0" dur="6.4s" begin="1.1s" repeatCount="indefinite" calcMode="spline" keySplines="0.45 0 0.55 1; 0.45 0 0.55 1" keyTimes="0;0.5;1"/><polygon points="816.0,184.0 842.0,171.0 816.0,158.0 790.0,171.0" fill="#5656d2" stroke="#b6b6f7" stroke-width="0.8"/><polygon points="790.0,215.0 816.0,228.0 816.0,184.0 790.0,171.0" fill="#2b2ba4"/><polygon points="816.0,228.0 842.0,215.0 842.0,171.0 816.0,184.0" fill="#1f1f75"/></g><g><animateTransform attributeName="transform" type="translate" values="0 0; 0 -7; 0 0" dur="5.9s" begin="1.8s" repeatCount="indefinite" calcMode="spline" keySplines="0.45 0 0.55 1; 0.45 0 0.55 1" keyTimes="0;0.5;1"/><polygon points="768.0,124.0 790.0,113.0 768.0,102.0 746.0,113.0" fill="#bc66d6" stroke="#edc8f9" stroke-width="0.8"/><polygon points="746.0,143.0 768.0,154.0 768.0,124.0 746.0,113.0" fill="#912eaf"/><polygon points="768.0,154.0 790.0,143.0 790.0,113.0 768.0,124.0" fill="#68217d"/></g><g><animateTransform attributeName="transform" type="translate" values="0 0; 0 -8; 0 0" dur="6.8s" begin="0.3s" repeatCount="indefinite" calcMode="spline" keySplines="0.45 0 0.55 1; 0.45 0 0.55 1" keyTimes="0;0.5;1"/><g opacity="0.85"><polygon points="252.0,40.0 266.0,33.0 252.0,26.0 238.0,33.0" fill="#d45ea9" stroke="#f8bfe3" stroke-width="0.8"/><polygon points="238.0,51.0 252.0,58.0 252.0,40.0 238.0,33.0" fill="#a92d7c"/><polygon points="252.0,58.0 266.0,51.0 266.0,33.0 252.0,40.0" fill="#792058"/></g></g><g><animateTransform attributeName="transform" type="translate" values="0 0; 0 -8; 0 0" dur="7.3s" begin="1.5s" repeatCount="indefinite" calcMode="spline" keySplines="0.45 0 0.55 1; 0.45 0 0.55 1" keyTimes="0;0.5;1"/><g opacity="0.85"><polygon points="632.0,36.0 645.0,29.5 632.0,23.0 619.0,29.5" fill="#5e6ed4" stroke="#bfc6f8" stroke-width="0.8"/><polygon points="619.0,45.5 632.0,52.0 632.0,36.0 619.0,29.5" fill="#2d3ea9"/><polygon points="632.0,52.0 645.0,45.5 645.0,29.5 632.0,36.0" fill="#202c79"/></g></g>
<line x1="0" y1="206.5" x2="880" y2="206.5" stroke="#a470c2" stroke-opacity="0.14"/>
<text x="446.0" y="132" font-family="'Segoe UI',-apple-system,'Helvetica Neue',Arial,sans-serif" font-size="46" font-weight="800" text-anchor="middle" fill="#2b1537">llm-redteam-workbench</text><text x="445.0" y="131" font-family="'Segoe UI',-apple-system,'Helvetica Neue',Arial,sans-serif" font-size="46" font-weight="800" text-anchor="middle" fill="#281434">llm-redteam-workbench</text><text x="444.0" y="130" font-family="'Segoe UI',-apple-system,'Helvetica Neue',Arial,sans-serif" font-size="46" font-weight="800" text-anchor="middle" fill="#251230">llm-redteam-workbench</text><text x="443.0" y="129" font-family="'Segoe UI',-apple-system,'Helvetica Neue',Arial,sans-serif" font-size="46" font-weight="800" text-anchor="middle" fill="#22112c">llm-redteam-workbench</text><text x="442.0" y="128" font-family="'Segoe UI',-apple-system,'Helvetica Neue',Arial,sans-serif" font-size="46" font-weight="800" text-anchor="middle" fill="#1f0f29">llm-redteam-workbench</text><text x="441.0" y="127" font-family="'Segoe UI',-apple-system,'Helvetica Neue',Arial,sans-serif" font-size="46" font-weight="800" text-anchor="middle" fill="#1d0e25">llm-redteam-workbench</text><text x="440.0" y="126" font-family="'Segoe UI',-apple-system,'Helvetica Neue',Arial,sans-serif" font-size="46" font-weight="800" text-anchor="middle" fill="url(#lgc77f2ca0)" letter-spacing="1">llm-redteam-workbench</text>
<text x="440.0" y="164" font-family="'Segoe UI',-apple-system,'Helvetica Neue',Arial,sans-serif" font-size="15" text-anchor="middle" fill="#cabdd1" opacity="0.92" letter-spacing="0.5">A local-first, safety-bounded LLM evaluation dashboard for authorized r…</text>
<text x="440.0" y="206" font-family="'Segoe UI',-apple-system,'Helvetica Neue',Arial,sans-serif" font-size="12" font-weight="600" text-anchor="middle" fill="#ab88bf" opacity="0.85" letter-spacing="3">qtjg/llm-redteam-workbench</text>
<g clip-path="url(#clip)"><polygon points="0,0 150,0 60,240 -90,240" fill="#ffffff" opacity="0.055"><animateTransform attributeName="transform" type="translate" from="-260 0" to="1140 0" dur="7.0s" repeatCount="indefinite"/></polygon></g>
<rect x="0" y="0" width="880" height="3" fill="url(#lgc77f2ca0)" opacity="0.9"/>
<rect x="0" y="236" width="880" height="4" fill="#7936a1" opacity="0.55"/>
</svg>